<svg width="1439" height="239" fill="none" xmlns="http://www.w3.org/2000/svg"><path d="M0 212.365l14.88-8.258c15.04-8.259 44.8-24.776 75.04-15.928 30.08 8.849 60.48 43.063 90.56 46.839 30.24 3.657 60-23.007 89.92-27.018 29.92-3.893 59.68 14.984 89.6 24.422 29.92 9.438 59.68 9.438 89.92-4.719 30.08-14.158 60.48-42.473 90.56-59.227 30.24-16.635 60-21.826 89.92-15.101s59.68 25.13 89.6 35.63c29.92 10.382 59.68 12.742 89.92 5.663 30.08-7.079 60.48-23.596 90.56-21.472 30.24 2.241 60 23.006 89.92 32.326 29.92 9.203 59.68 6.843 89.6 4.72 29.92-2.242 59.68-4.13 89.92-10.855 30.08-6.725 60.48-18.051 90.56-20.292 30.24-2.124 60 4.955 89.92 2.005 29.92-2.949 59.68-15.927 74.72-22.416l14.88-6.489V0H0v212.365z" fill="#D9A066"/></svg>