<svg width="52" height="52" fill="none" xmlns="http://www.w3.org/2000/svg"><g clip-path="url(#clip0_10_194)"><path d="M51.024 19.286a3.202 3.202 0 00-2.55-2.146l-13.787-2.107L28.494 1.84a3.2 3.2 0 00-5.793 0l-6.194 13.194L2.72 17.14a3.199 3.199 0 00-1.806 5.397l10.069 10.325-2.385 14.606a3.201 3.201 0 004.71 3.317l12.29-6.797 12.29 6.797a3.2 3.2 0 004.71-3.317l-2.386-14.606 10.07-10.325a3.203 3.203 0 00.742-3.25z" fill="#D9A066"/></g><defs><clipPath id="clip0_10_194"><path fill="#fff" d="M0 0h52v52H0z"/></clipPath></defs></svg>