<svg width="1439" height="239" viewBox="0 0 1439 239" fill="none" xmlns="http://www.w3.org/2000/svg">
<path d="M0 212.365L14.88 204.107C29.92 195.848 59.68 179.331 89.92 188.179C120 197.028 150.4 231.242 180.48 235.018C210.72 238.675 240.48 212.011 270.4 208C300.32 204.107 330.08 222.984 360 232.422C389.92 241.86 419.68 241.86 449.92 227.703C480 213.545 510.4 185.23 540.48 168.476C570.72 151.841 600.48 146.65 630.4 153.375C660.32 160.1 690.08 178.505 720 189.005C749.92 199.387 779.68 201.747 809.92 194.668C840 187.589 870.4 171.072 900.48 173.196C930.72 175.437 960.48 196.202 990.4 205.522C1020.32 214.725 1050.08 212.365 1080 210.242C1109.92 208 1139.68 206.112 1169.92 199.387C1200 192.662 1230.4 181.336 1260.48 179.095C1290.72 176.971 1320.48 184.05 1350.4 181.1C1380.32 178.151 1410.08 165.173 1425.12 158.684L1440 152.195V0H1425.12C1410.08 0 1380.32 0 1350.4 0C1320.48 0 1290.72 0 1260.48 0C1230.4 0 1200 0 1169.92 0C1139.68 0 1109.92 0 1080 0C1050.08 0 1020.32 0 990.4 0C960.48 0 930.72 0 900.48 0C870.4 0 840 0 809.92 0C779.68 0 749.92 0 720 0C690.08 0 660.32 0 630.4 0C600.48 0 570.72 0 540.48 0C510.4 0 480 0 449.92 0C419.68 0 389.92 0 360 0C330.08 0 300.32 0 270.4 0C240.48 0 210.72 0 180.48 0C150.4 0 120 0 89.92 0C59.68 0 29.92 0 14.88 0H0V212.365Z" fill="#D9A066"/>
</svg>
