<svg width="52" height="52" viewBox="0 0 52 52" fill="none" xmlns="http://www.w3.org/2000/svg">
<g clip-path="url(#clip0_10_194)">
<path d="M51.0244 19.2863C50.6425 18.1496 49.6586 17.3209 48.4739 17.1397L34.6866 15.0329L28.4937 1.84031C27.9656 0.715813 26.8371 0 25.5972 0C24.3565 0 23.2287 0.715813 22.7006 1.84031L16.5069 15.0337L2.71962 17.1405C1.53499 17.3217 0.551055 18.1496 0.169992 19.2871C-0.21107 20.4246 0.0765547 21.6775 0.914242 22.5371L10.9827 32.8616L8.59805 47.4679C8.40143 48.6769 8.91412 49.8924 9.9143 50.5993C10.9137 51.3061 12.2332 51.3776 13.3081 50.7845L25.598 43.9879L37.8879 50.7845C38.3729 51.0526 38.9067 51.1842 39.4381 51.1842C40.0849 51.1842 40.7316 50.9876 41.2817 50.5993C42.2819 49.8932 42.7937 48.6777 42.5971 47.4679L40.2124 32.8616L50.2817 22.5371C51.1178 21.6775 51.4054 20.4246 51.0244 19.2863Z" fill="#D9A066"/>
</g>
<defs>
<clipPath id="clip0_10_194">
<rect width="52" height="52" fill="white"/>
</clipPath>
</defs>
</svg>
